<?xml version="1.0" standalone="no"?>
<!DOCTYPE svg PUBLIC "-//W3C//DTD SVG 20010904//EN"
 "http://www.w3.org/TR/2001/REC-SVG-20010904/DTD/svg10.dtd">
<svg version="1.0" xmlns="http://www.w3.org/2000/svg"
 width="512.000000pt" height="512.000000pt" viewBox="0 0 512.000000 512.000000"
 preserveAspectRatio="xMidYMid meet">

<g transform="translate(0.000000,512.000000) scale(0.100000,-0.100000)"
fill="#000000" stroke="none">
<path d="M985 4923 c-533 -107 -972 -197 -975 -199 -2 -3 127 -136 288 -297
l292 -292 -66 -90 c-521 -706 -630 -1664 -282 -2475 131 -307 295 -548 538
-790 145 -146 247 -229 405 -333 979 -640 2276 -516 3124 298 799 769 1001
1972 495 2963 -251 492 -682 908 -1171 1133 l-83 38 0 -302 0 -302 48 -27 c90
-50 256 -182 357 -282 293 -293 474 -633 556 -1046 26 -135 37 -444 20 -587
-82 -672 -495 -1255 -1101 -1553 -182 -90 -398 -156 -603 -185 -131 -19 -403
-19 -534 0 -733 104 -1347 601 -1596 1290 -81 224 -117 428 -117 672 0 324 64
603 204 882 48 95 132 234 170 283 l21 26 297 -296 c164 -163 299 -294 301
-292 2 3 90 437 196 965 106 528 195 968 197 978 3 9 2 17 -3 16 -4 -1 -444
-89 -978 -196z"/>
</g>
</svg>
